<svg width="32" height="32" viewBox="0 0 32 32" fill="none" xmlns="http://www.w3.org/2000/svg">
<rect width="32" height="32" fill="#FFF4E8"/>
<path d="M14.2757 22.544C13.6837 22.8 12.9957 22.984 12.2117 23.096C11.4277 23.208 10.6997 23.264 10.0277 23.264C7.85166 23.264 6.14766 22.696 4.91566 21.56C3.68366 20.424 3.06766 18.68 3.06766 16.328C3.06766 13.928 3.71566 12.136 5.01166 10.952C6.30766 9.752 8.13166 9.152 10.4837 9.152C11.6037 9.152 12.7717 9.304 13.9877 9.608C13.9877 9.928 13.9557 10.408 13.8917 11.048C13.8277 11.672 13.7637 12.112 13.6997 12.368H12.1877C11.0837 12.368 10.2117 12.392 9.57166 12.44C8.94766 12.472 8.57166 12.544 8.44366 12.656C8.20366 12.88 8.01966 13.336 7.89166 14.024C7.76366 14.696 7.69966 15.344 7.69966 15.968C7.69966 17.056 7.83566 17.896 8.10766 18.488C8.37966 19.064 8.72366 19.448 9.13966 19.64C9.53966 19.832 10.2037 19.928 11.1317 19.928C11.8677 19.928 12.8277 19.864 14.0117 19.736L14.2757 22.544Z" fill="black"/>
<path d="M23 9L24.9799 14.0201L30 16L24.9799 17.9799L23 23L21.0201 17.9799L16 16L21.0201 14.0201L23 9Z" fill="#8E8CFF"/>
</svg>
