<svg width="32" height="32" viewBox="0 0 32 32" fill="none" xmlns="http://www.w3.org/2000/svg">
<path fill-rule="evenodd" clip-rule="evenodd" d="M10.3787 6.5H11H27H28.5V8V24V25.5H27H11H10.3787L9.93932 25.0607L1.93932 17.0607L0.878662 16L1.93932 14.9393L9.93932 6.93934L10.3787 6.5ZM11.6213 9.5L5.1213 16L11.6213 22.5H25.5V9.5H11.6213ZM15 10.8787L16.0606 11.9393L18 13.8787L19.9393 11.9393L21 10.8787L23.1213 13L22.0606 14.0607L20.1213 16L22.0606 17.9393L23.1213 19L21 21.1213L19.9393 20.0606L18 18.1213L16.0606 20.0607L15 21.1213L12.8787 19L13.9393 17.9393L15.8787 16L13.9393 14.0606L12.8787 13L15 10.8787Z" fill="#343436"/>
</svg>
